<svg width="18" height="17" viewBox="0 0 18 17" fill="none" xmlns="http://www.w3.org/2000/svg">
<path d="M2.96738 1.55156C3.02625 1.49269 3.05569 1.46325 3.08162 1.43942C3.71925 0.853525 4.69934 0.853525 5.33697 1.43942C5.3629 1.46325 5.39234 1.49269 5.45121 1.55156L6.66637 2.76672C7.33475 3.4351 7.52591 4.44446 7.14821 5.31095C6.77051 6.17744 6.96166 7.1868 7.63004 7.85518L9.62738 9.85252C10.2958 10.5209 11.3051 10.7121 12.1716 10.3344C13.0381 9.95666 14.0475 10.1478 14.7158 10.8162L15.931 12.0314C15.9899 12.0902 16.0193 12.1197 16.0431 12.1456C16.629 12.7832 16.629 13.7633 16.0431 14.4009C16.0193 14.4269 15.9899 14.4563 15.931 14.5152L15.1924 15.2538C14.5909 15.8553 13.7238 16.1078 12.8934 15.9233C7.2354 14.6659 2.81662 10.2472 1.55929 4.58917C1.37476 3.75878 1.62726 2.89167 2.22876 2.29018L2.96738 1.55156Z" stroke="#1C1B1C" stroke-width="1.25"/>
</svg>
