<svg width="20" height="20" viewBox="0 0 20 20" fill="none" xmlns="http://www.w3.org/2000/svg">
<path d="M8 19L8 18.375H8V19ZM7 19L7 19.625H7V19ZM1 13L1.625 13L1 13ZM1 7L0.375 7L1 7ZM7 1L7 0.375L7 1ZM8 1L8 1.625L8 1ZM1.06156 5.21783L0.444253 5.12006L0.444253 5.12006L1.06156 5.21783ZM5.21783 1.06156L5.3156 1.67886L5.21783 1.06156ZM5.21783 18.9384L5.12006 19.5557L5.12006 19.5557L5.21783 18.9384ZM1.06156 14.7822L0.444252 14.8799L0.444252 14.8799L1.06156 14.7822ZM11.3754 18.5001C11.6514 18.2928 11.707 17.901 11.4997 17.625C11.2924 17.349 10.9006 17.2933 10.6246 17.5006L11.3754 18.5001ZM10.6246 2.49936C10.9006 2.70667 11.2924 2.65099 11.4997 2.375C11.707 2.099 11.6514 1.70721 11.3754 1.49991L10.6246 2.49936ZM5 9.375C4.65482 9.375 4.375 9.65482 4.375 10C4.375 10.3452 4.65482 10.625 5 10.625L5 9.375ZM18 10L18 10.625H18V10ZM15.3883 5.51026C15.1178 5.29581 14.7247 5.34122 14.5103 5.61169C14.2958 5.88217 14.3412 6.27528 14.6117 6.48974L15.3883 5.51026ZM16.763 7.39785L17.1513 6.90811L17.1513 6.90811L16.763 7.39785ZM16.763 12.6022L17.1513 13.0919L17.1513 13.0919L16.763 12.6022ZM14.6117 13.5103C14.3412 13.7247 14.2958 14.1178 14.5103 14.3883C14.7247 14.6588 15.1178 14.7042 15.3883 14.4897L14.6117 13.5103ZM18.9801 9.74933L19.5973 9.651L19.5973 9.65099L18.9801 9.74933ZM18.9801 10.2507L19.5973 10.349L19.5973 10.349L18.9801 10.2507ZM19 10L19.625 10L19 10ZM8 18.375H7V19.625H8V18.375ZM1.625 13L1.625 7L0.375 7L0.375 13L1.625 13ZM7 1.625L8 1.625L8 0.375L7 0.375L7 1.625ZM1.625 7C1.625 6.04711 1.62694 5.64343 1.67886 5.3156L0.444253 5.12006C0.373061 5.56955 0.375 6.09488 0.375 7L1.625 7ZM7 0.375C6.09488 0.375 5.56955 0.37306 5.12006 0.444253L5.3156 1.67886C5.64343 1.62694 6.04711 1.625 7 1.625L7 0.375ZM1.67886 5.3156C1.97536 3.44357 3.44357 1.97536 5.3156 1.67886L5.12006 0.444253C2.71316 0.825468 0.825468 2.71316 0.444253 5.12006L1.67886 5.3156ZM7 18.375C6.04711 18.375 5.64343 18.3731 5.3156 18.3211L5.12006 19.5557C5.56955 19.6269 6.09488 19.625 7 19.625L7 18.375ZM0.375 13C0.375 13.9051 0.37306 14.4305 0.444252 14.8799L1.67886 14.6844C1.62694 14.3566 1.625 13.9529 1.625 13L0.375 13ZM5.3156 18.3211C3.44357 18.0246 1.97536 16.5564 1.67886 14.6844L0.444252 14.8799C0.825467 17.2868 2.71316 19.1745 5.12006 19.5557L5.3156 18.3211ZM8 19.625C9.26559 19.625 10.4352 19.2063 11.3754 18.5001L10.6246 17.5006C9.89349 18.0498 8.98562 18.375 8 18.375L8 19.625ZM8 1.625C8.98562 1.625 9.8935 1.95018 10.6246 2.49936L11.3754 1.49991C10.4352 0.793711 9.26559 0.375 8 0.375L8 1.625ZM5 10.625L18 10.625L18 9.375L5 9.375L5 10.625ZM14.6117 6.48974L16.3747 7.88758L17.1513 6.90811L15.3883 5.51026L14.6117 6.48974ZM16.3747 12.1124L14.6117 13.5103L15.3883 14.4897L17.1513 13.0919L16.3747 12.1124ZM16.3747 7.88758C17.0896 8.45445 17.5832 8.84702 17.9171 9.17966C18.2482 9.50951 18.3398 9.70257 18.3629 9.84767L19.5973 9.65099C19.5122 9.11674 19.1982 8.69143 18.7993 8.29407C18.4032 7.8995 17.8423 7.456 17.1513 6.90811L16.3747 7.88758ZM17.1513 13.0919C17.8423 12.544 18.4032 12.1005 18.7993 11.7059C19.1982 11.3086 19.5122 10.8833 19.5973 10.349L18.3629 10.1523C18.3398 10.2974 18.2482 10.4905 17.9171 10.8203C17.5832 11.153 17.0896 11.5456 16.3747 12.1124L17.1513 13.0919ZM18.3629 9.84767C18.371 9.89849 18.375 9.94933 18.375 10L19.625 10C19.625 9.88323 19.6157 9.76662 19.5973 9.651L18.3629 9.84767ZM18.375 10C18.375 10.0507 18.371 10.1015 18.3629 10.1523L19.5973 10.349C19.6157 10.2334 19.625 10.1168 19.625 10L18.375 10ZM18 10.625H19V9.375H18V10.625Z" fill="#FF3B30"/>
</svg>
