<svg width="18" height="17" viewBox="0 0 18 17" fill="none" xmlns="http://www.w3.org/2000/svg">
<path d="M1.17345 3.20687C0.666748 4.2798 0.666748 5.81171 0.666748 8.5C0.666748 11.6248 0.666748 13.1872 1.46251 14.2824C1.71951 14.6362 2.03058 14.9472 2.38431 15.2042C3.47958 16 5.04197 16 8.16675 16H9.83341C12.9582 16 14.5206 16 15.6159 15.2042C15.9696 14.9472 16.2807 14.6362 16.5377 14.2824C17.3334 13.1872 17.3334 11.6248 17.3334 8.5C17.3334 5.79271 17.3334 4.25821 16.8159 3.18419M1.17345 3.20687C1.25572 3.03266 1.35135 2.87055 1.46251 2.71756C1.71951 2.36383 2.03058 2.05276 2.38431 1.79576C3.47958 1 5.04197 1 8.16675 1H9.83341C12.9582 1 14.5206 1 15.6159 1.79576C15.9696 2.05276 16.2807 2.36383 16.5377 2.71756C16.644 2.8639 16.7361 3.01857 16.8159 3.18419M1.17345 3.20687L1.50008 3.5L3.10753 5.10744C5.8853 7.88522 7.27419 9.27411 9.00008 9.27411C10.726 9.27411 12.1149 7.88522 14.8926 5.10745L16.5001 3.5L16.8159 3.18419" stroke="#1C1B1C"/>
</svg>
