<svg width="28" height="27" viewBox="0 0 28 27" fill="none" xmlns="http://www.w3.org/2000/svg">
<path d="M17.03 6.48003C17.03 8.45169 15.4317 10.05 13.46 10.05V11.55C16.2601 11.55 18.53 9.28012 18.53 6.48003H17.03ZM13.46 10.05C11.4884 10.05 9.89002 8.45169 9.89002 6.48003H8.39002C8.39002 9.28012 10.6599 11.55 13.46 11.55V10.05ZM9.89002 6.48003C9.89002 4.50838 11.4884 2.91003 13.46 2.91003V1.41003C10.6599 1.41003 8.39002 3.67995 8.39002 6.48003H9.89002ZM13.46 2.91003C15.4317 2.91003 17.03 4.50838 17.03 6.48003H18.53C18.53 3.67995 16.2601 1.41003 13.46 1.41003V2.91003ZM10.22 14.79H16.7V13.29H10.22V14.79ZM16.7 21.93H10.22V23.43H16.7V21.93ZM10.22 21.93C8.24837 21.93 6.65002 20.3317 6.65002 18.36H5.15002C5.15002 21.1601 7.41994 23.43 10.22 23.43V21.93ZM20.27 18.36C20.27 20.3317 18.6717 21.93 16.7 21.93V23.43C19.5001 23.43 21.77 21.1601 21.77 18.36H20.27ZM16.7 14.79C18.6717 14.79 20.27 16.3884 20.27 18.36H21.77C21.77 15.56 19.5001 13.29 16.7 13.29V14.79ZM10.22 13.29C7.41994 13.29 5.15002 15.56 5.15002 18.36H6.65002C6.65002 16.3884 8.24837 14.79 10.22 14.79V13.29Z" fill="#1C1B1C"/>
</svg>
