<svg width="17" height="23" viewBox="0 0 17 23" fill="none" xmlns="http://www.w3.org/2000/svg">
<path d="M12.78 5.48003C12.78 7.8659 10.8459 9.80003 8.46002 9.80003C6.07415 9.80003 4.14002 7.8659 4.14002 5.48003C4.14002 3.09416 6.07415 1.16003 8.46002 1.16003C10.8459 1.16003 12.78 3.09416 12.78 5.48003Z" fill="#1C1B1C"/>
<path d="M0.900024 17.36C0.900024 14.9742 2.83415 13.04 5.22002 13.04H11.7C14.0859 13.04 16.02 14.9742 16.02 17.36C16.02 19.7459 14.0859 21.68 11.7 21.68H5.22002C2.83415 21.68 0.900024 19.7459 0.900024 17.36Z" fill="#1C1B1C"/>
<path d="M12.03 5.48003C12.03 7.45169 10.4317 9.05003 8.46002 9.05003V10.55C11.2601 10.55 13.53 8.28012 13.53 5.48003H12.03ZM8.46002 9.05003C6.48837 9.05003 4.89002 7.45169 4.89002 5.48003H3.39002C3.39002 8.28012 5.65994 10.55 8.46002 10.55V9.05003ZM4.89002 5.48003C4.89002 3.50838 6.48837 1.91003 8.46002 1.91003V0.410034C5.65994 0.410034 3.39002 2.67995 3.39002 5.48003H4.89002ZM8.46002 1.91003C10.4317 1.91003 12.03 3.50838 12.03 5.48003H13.53C13.53 2.67995 11.2601 0.410034 8.46002 0.410034V1.91003ZM5.22002 13.79H11.7V12.29H5.22002V13.79ZM11.7 20.93H5.22002V22.43H11.7V20.93ZM5.22002 20.93C3.24837 20.93 1.65002 19.3317 1.65002 17.36H0.150024C0.150024 20.1601 2.41994 22.43 5.22002 22.43V20.93ZM15.27 17.36C15.27 19.3317 13.6717 20.93 11.7 20.93V22.43C14.5001 22.43 16.77 20.1601 16.77 17.36H15.27ZM11.7 13.79C13.6717 13.79 15.27 15.3884 15.27 17.36H16.77C16.77 14.56 14.5001 12.29 11.7 12.29V13.79ZM5.22002 12.29C2.41994 12.29 0.150024 14.56 0.150024 17.36H1.65002C1.65002 15.3884 3.24837 13.79 5.22002 13.79V12.29Z" fill="#1C1B1C"/>
</svg>
